<svg width="430" height="230" viewBox="0 0 430 230" fill="none" xmlns="http://www.w3.org/2000/svg">
<mask id="mask0_681_202" style="mask-type:alpha" maskUnits="userSpaceOnUse" x="35" y="30" width="355" height="20">
<rect x="35.5" y="30.5" width="354" height="19" rx="9.5" fill="#5546AE" stroke="white"/>
</mask>
<g mask="url(#mask0_681_202)">
<rect x="35.5" y="30.5" width="354" height="19" rx="9.5" fill="#5546AE" stroke="white"/>
<rect x="35" y="30" width="177" height="20" fill="#FF6E00"/>
</g>
<mask id="mask1_681_202" style="mask-type:alpha" maskUnits="userSpaceOnUse" x="35" y="73" width="355" height="20">
<rect x="35.5" y="73.5" width="354" height="19" rx="9.5" fill="#5546AE" stroke="white"/>
</mask>
<g mask="url(#mask1_681_202)">
<rect x="35.5" y="73.5" width="354" height="19" rx="9.5" fill="#5546AE" stroke="white"/>
<rect x="35" y="73" width="111" height="20" fill="#FF6E00"/>
</g>
<mask id="mask2_681_202" style="mask-type:alpha" maskUnits="userSpaceOnUse" x="35" y="116" width="355" height="20">
<rect x="35.5" y="116.5" width="354" height="19" rx="9.5" fill="#5546AE" stroke="white"/>
</mask>
<g mask="url(#mask2_681_202)">
<rect x="35.5" y="116.5" width="354" height="19" rx="9.5" fill="#5546AE" stroke="white"/>
<rect x="35" y="116" width="292" height="20" fill="#FF6E00"/>
</g>
<mask id="mask3_681_202" style="mask-type:alpha" maskUnits="userSpaceOnUse" x="35" y="159" width="355" height="20">
<rect x="35.5" y="159.5" width="354" height="19" rx="9.5" fill="#5546AE" stroke="white"/>
</mask>
<g mask="url(#mask3_681_202)">
<rect x="35.5" y="159.5" width="354" height="19" rx="9.5" fill="#5546AE" stroke="white"/>
<rect x="35" y="159" width="246" height="20" fill="#FF6E00"/>
</g>
<mask id="mask4_681_202" style="mask-type:alpha" maskUnits="userSpaceOnUse" x="35" y="202" width="355" height="20">
<rect x="35.5" y="202.5" width="354" height="19" rx="9.5" fill="#5546AE" stroke="white"/>
</mask>
<g mask="url(#mask4_681_202)">
<rect x="35.5" y="202.5" width="354" height="19" rx="9.5" fill="#5546AE" stroke="white"/>
<rect x="35" y="202" width="145" height="20" fill="#FF6E00"/>
</g>
<path d="M222.693 25.0678L233.511 9.22631H237.335L226.518 25.0678H222.693ZM224.209 17.826C223.41 17.826 222.693 17.66 222.059 17.3281C221.426 16.9811 220.92 16.4757 220.543 15.8118C220.181 15.148 220 14.3484 220 13.413C220 12.4776 220.181 11.6855 220.543 11.0368C220.92 10.3729 221.426 9.86751 222.059 9.52051C222.693 9.1735 223.41 9 224.209 9C225.009 9 225.726 9.1735 226.359 9.52051C226.993 9.86751 227.491 10.3729 227.853 11.0368C228.23 11.6855 228.419 12.4776 228.419 13.413C228.419 14.3484 228.23 15.148 227.853 15.8118C227.491 16.4757 226.993 16.9811 226.359 17.3281C225.726 17.66 225.009 17.826 224.209 17.826ZM224.209 15.3819C224.466 15.3819 224.692 15.2461 224.888 14.9745C225.099 14.6879 225.205 14.1673 225.205 13.413C225.205 12.6586 225.099 12.1457 224.888 11.8741C224.692 11.5874 224.466 11.4441 224.209 11.4441C223.968 11.4441 223.742 11.5874 223.53 11.8741C223.319 12.1457 223.214 12.6586 223.214 13.413C223.214 14.1673 223.319 14.6879 223.53 14.9745C223.742 15.2461 223.968 15.3819 224.209 15.3819ZM235.819 25.2941C235.019 25.2941 234.303 25.1282 233.669 24.7962C233.035 24.4492 232.53 23.9438 232.153 23.28C231.791 22.6162 231.61 21.8165 231.61 20.8811C231.61 19.9457 231.791 19.1537 232.153 18.5049C232.53 17.8411 233.035 17.3356 233.669 16.9886C234.303 16.6416 235.019 16.4681 235.819 16.4681C236.618 16.4681 237.335 16.6416 237.969 16.9886C238.602 17.3356 239.1 17.8411 239.462 18.5049C239.84 19.1537 240.028 19.9457 240.028 20.8811C240.028 21.8165 239.84 22.6162 239.462 23.28C239.1 23.9438 238.602 24.4492 237.969 24.7962C237.335 25.1282 236.618 25.2941 235.819 25.2941ZM235.819 22.85C236.075 22.85 236.302 22.7142 236.498 22.4426C236.709 22.156 236.815 21.6355 236.815 20.8811C236.815 20.1268 236.709 19.6138 236.498 19.3422C236.302 19.0556 236.075 18.9123 235.819 18.9123C235.577 18.9123 235.351 19.0556 235.14 19.3422C234.929 19.6138 234.823 20.1268 234.823 20.8811C234.823 21.6355 234.929 22.156 235.14 22.4426C235.351 22.7142 235.577 22.85 235.819 22.85Z" fill="white"/>
<path d="M222.693 70.0678L233.511 54.2263H237.335L226.518 70.0678H222.693ZM224.209 62.826C223.41 62.826 222.693 62.66 222.059 62.3281C221.426 61.9811 220.92 61.4757 220.543 60.8118C220.181 60.148 220 59.3484 220 58.413C220 57.4776 220.181 56.6855 220.543 56.0368C220.92 55.3729 221.426 54.8675 222.059 54.5205C222.693 54.1735 223.41 54 224.209 54C225.009 54 225.726 54.1735 226.359 54.5205C226.993 54.8675 227.491 55.3729 227.853 56.0368C228.23 56.6855 228.419 57.4776 228.419 58.413C228.419 59.3484 228.23 60.148 227.853 60.8118C227.491 61.4757 226.993 61.9811 226.359 62.3281C225.726 62.66 225.009 62.826 224.209 62.826ZM224.209 60.3819C224.466 60.3819 224.692 60.2461 224.888 59.9745C225.099 59.6879 225.205 59.1673 225.205 58.413C225.205 57.6586 225.099 57.1457 224.888 56.8741C224.692 56.5874 224.466 56.4441 224.209 56.4441C223.968 56.4441 223.742 56.5874 223.53 56.8741C223.319 57.1457 223.214 57.6586 223.214 58.413C223.214 59.1673 223.319 59.6879 223.53 59.9745C223.742 60.2461 223.968 60.3819 224.209 60.3819ZM235.819 70.2941C235.019 70.2941 234.303 70.1282 233.669 69.7962C233.035 69.4492 232.53 68.9438 232.153 68.28C231.791 67.6162 231.61 66.8165 231.61 65.8811C231.61 64.9457 231.791 64.1537 232.153 63.5049C232.53 62.8411 233.035 62.3356 233.669 61.9886C234.303 61.6416 235.019 61.4681 235.819 61.4681C236.618 61.4681 237.335 61.6416 237.969 61.9886C238.602 62.3356 239.1 62.8411 239.462 63.5049C239.84 64.1537 240.028 64.9457 240.028 65.8811C240.028 66.8165 239.84 67.6162 239.462 68.28C239.1 68.9438 238.602 69.4492 237.969 69.7962C237.335 70.1282 236.618 70.2941 235.819 70.2941ZM235.819 67.85C236.075 67.85 236.302 67.7142 236.498 67.4426C236.709 67.156 236.815 66.6355 236.815 65.8811C236.815 65.1268 236.709 64.6138 236.498 64.3422C236.302 64.0556 236.075 63.9123 235.819 63.9123C235.577 63.9123 235.351 64.0556 235.14 64.3422C234.929 64.6138 234.823 65.1268 234.823 65.8811C234.823 66.6355 234.929 67.156 235.14 67.4426C235.351 67.7142 235.577 67.85 235.819 67.85Z" fill="white"/>
<path d="M214.693 114.068L225.511 98.2263H229.335L218.518 114.068H214.693ZM216.209 106.826C215.41 106.826 214.693 106.66 214.059 106.328C213.426 105.981 212.92 105.476 212.543 104.812C212.181 104.148 212 103.348 212 102.413C212 101.478 212.181 100.686 212.543 100.037C212.92 99.3729 213.426 98.8675 214.059 98.5205C214.693 98.1735 215.41 98 216.209 98C217.009 98 217.726 98.1735 218.359 98.5205C218.993 98.8675 219.491 99.3729 219.853 100.037C220.23 100.686 220.419 101.478 220.419 102.413C220.419 103.348 220.23 104.148 219.853 104.812C219.491 105.476 218.993 105.981 218.359 106.328C217.726 106.66 217.009 106.826 216.209 106.826ZM216.209 104.382C216.466 104.382 216.692 104.246 216.888 103.975C217.099 103.688 217.205 103.167 217.205 102.413C217.205 101.659 217.099 101.146 216.888 100.874C216.692 100.587 216.466 100.444 216.209 100.444C215.968 100.444 215.742 100.587 215.53 100.874C215.319 101.146 215.214 101.659 215.214 102.413C215.214 103.167 215.319 103.688 215.53 103.975C215.742 104.246 215.968 104.382 216.209 104.382ZM227.819 114.294C227.019 114.294 226.303 114.128 225.669 113.796C225.035 113.449 224.53 112.944 224.153 112.28C223.791 111.616 223.61 110.817 223.61 109.881C223.61 108.946 223.791 108.154 224.153 107.505C224.53 106.841 225.035 106.336 225.669 105.989C226.303 105.642 227.019 105.468 227.819 105.468C228.618 105.468 229.335 105.642 229.969 105.989C230.602 106.336 231.1 106.841 231.462 107.505C231.84 108.154 232.028 108.946 232.028 109.881C232.028 110.817 231.84 111.616 231.462 112.28C231.1 112.944 230.602 113.449 229.969 113.796C229.335 114.128 228.618 114.294 227.819 114.294ZM227.819 111.85C228.075 111.85 228.302 111.714 228.498 111.443C228.709 111.156 228.815 110.635 228.815 109.881C228.815 109.127 228.709 108.614 228.498 108.342C228.302 108.056 228.075 107.912 227.819 107.912C227.577 107.912 227.351 108.056 227.14 108.342C226.929 108.614 226.823 109.127 226.823 109.881C226.823 110.635 226.929 111.156 227.14 111.443C227.351 111.714 227.577 111.85 227.819 111.85Z" fill="white"/>
<path d="M214.693 157.068L225.511 141.226H229.335L218.518 157.068H214.693ZM216.209 149.826C215.41 149.826 214.693 149.66 214.059 149.328C213.426 148.981 212.92 148.476 212.543 147.812C212.181 147.148 212 146.348 212 145.413C212 144.478 212.181 143.686 212.543 143.037C212.92 142.373 213.426 141.868 214.059 141.521C214.693 141.174 215.41 141 216.209 141C217.009 141 217.726 141.174 218.359 141.521C218.993 141.868 219.491 142.373 219.853 143.037C220.23 143.686 220.419 144.478 220.419 145.413C220.419 146.348 220.23 147.148 219.853 147.812C219.491 148.476 218.993 148.981 218.359 149.328C217.726 149.66 217.009 149.826 216.209 149.826ZM216.209 147.382C216.466 147.382 216.692 147.246 216.888 146.975C217.099 146.688 217.205 146.167 217.205 145.413C217.205 144.659 217.099 144.146 216.888 143.874C216.692 143.587 216.466 143.444 216.209 143.444C215.968 143.444 215.742 143.587 215.53 143.874C215.319 144.146 215.214 144.659 215.214 145.413C215.214 146.167 215.319 146.688 215.53 146.975C215.742 147.246 215.968 147.382 216.209 147.382ZM227.819 157.294C227.019 157.294 226.303 157.128 225.669 156.796C225.035 156.449 224.53 155.944 224.153 155.28C223.791 154.616 223.61 153.817 223.61 152.881C223.61 151.946 223.791 151.154 224.153 150.505C224.53 149.841 225.035 149.336 225.669 148.989C226.303 148.642 227.019 148.468 227.819 148.468C228.618 148.468 229.335 148.642 229.969 148.989C230.602 149.336 231.1 149.841 231.462 150.505C231.84 151.154 232.028 151.946 232.028 152.881C232.028 153.817 231.84 154.616 231.462 155.28C231.1 155.944 230.602 156.449 229.969 156.796C229.335 157.128 228.618 157.294 227.819 157.294ZM227.819 154.85C228.075 154.85 228.302 154.714 228.498 154.443C228.709 154.156 228.815 153.635 228.815 152.881C228.815 152.127 228.709 151.614 228.498 151.342C228.302 151.056 228.075 150.912 227.819 150.912C227.577 150.912 227.351 151.056 227.14 151.342C226.929 151.614 226.823 152.127 226.823 152.881C226.823 153.635 226.929 154.156 227.14 154.443C227.351 154.714 227.577 154.85 227.819 154.85Z" fill="white"/>
<path d="M214.693 200.068L225.511 184.226H229.335L218.518 200.068H214.693ZM216.209 192.826C215.41 192.826 214.693 192.66 214.059 192.328C213.426 191.981 212.92 191.476 212.543 190.812C212.181 190.148 212 189.348 212 188.413C212 187.478 212.181 186.686 212.543 186.037C212.92 185.373 213.426 184.868 214.059 184.521C214.693 184.174 215.41 184 216.209 184C217.009 184 217.726 184.174 218.359 184.521C218.993 184.868 219.491 185.373 219.853 186.037C220.23 186.686 220.419 187.478 220.419 188.413C220.419 189.348 220.23 190.148 219.853 190.812C219.491 191.476 218.993 191.981 218.359 192.328C217.726 192.66 217.009 192.826 216.209 192.826ZM216.209 190.382C216.466 190.382 216.692 190.246 216.888 189.975C217.099 189.688 217.205 189.167 217.205 188.413C217.205 187.659 217.099 187.146 216.888 186.874C216.692 186.587 216.466 186.444 216.209 186.444C215.968 186.444 215.742 186.587 215.53 186.874C215.319 187.146 215.214 187.659 215.214 188.413C215.214 189.167 215.319 189.688 215.53 189.975C215.742 190.246 215.968 190.382 216.209 190.382ZM227.819 200.294C227.019 200.294 226.303 200.128 225.669 199.796C225.035 199.449 224.53 198.944 224.153 198.28C223.791 197.616 223.61 196.817 223.61 195.881C223.61 194.946 223.791 194.154 224.153 193.505C224.53 192.841 225.035 192.336 225.669 191.989C226.303 191.642 227.019 191.468 227.819 191.468C228.618 191.468 229.335 191.642 229.969 191.989C230.602 192.336 231.1 192.841 231.462 193.505C231.84 194.154 232.028 194.946 232.028 195.881C232.028 196.817 231.84 197.616 231.462 198.28C231.1 198.944 230.602 199.449 229.969 199.796C229.335 200.128 228.618 200.294 227.819 200.294ZM227.819 197.85C228.075 197.85 228.302 197.714 228.498 197.443C228.709 197.156 228.815 196.635 228.815 195.881C228.815 195.127 228.709 194.614 228.498 194.342C228.302 194.056 228.075 193.912 227.819 193.912C227.577 193.912 227.351 194.056 227.14 194.342C226.929 194.614 226.823 195.127 226.823 195.881C226.823 196.635 226.929 197.156 227.14 197.443C227.351 197.714 227.577 197.85 227.819 197.85Z" fill="white"/>
<path d="M183.605 15.7355C183.605 15.0868 183.756 14.5135 184.058 14.0156C184.345 13.5026 184.744 13.1028 185.257 12.8162C185.755 12.5144 186.329 12.3636 186.977 12.3636H199.741C200.39 12.3636 200.963 12.5144 201.461 12.8162C201.974 13.1028 202.374 13.5026 202.66 14.0156C202.962 14.5135 203.113 15.0868 203.113 15.7355V15.7808C203.113 16.4295 202.962 17.0104 202.66 17.5234C202.374 18.0212 201.974 18.4211 201.461 18.7228C200.963 19.0094 200.39 19.1528 199.741 19.1528H186.977C186.329 19.1528 185.755 19.0094 185.257 18.7228C184.744 18.4211 184.345 18.0212 184.058 17.5234C183.756 17.0104 183.605 16.4295 183.605 15.7808V15.7355ZM196.313 15.7355C196.313 15.0868 196.464 14.5135 196.766 14.0156C197.052 13.5026 197.452 13.1028 197.965 12.8162C198.463 12.5144 199.036 12.3636 199.685 12.3636H212.449C213.098 12.3636 213.671 12.5144 214.169 12.8162C214.682 13.1028 215.081 13.5026 215.368 14.0156C215.67 14.5135 215.821 15.0868 215.821 15.7355V15.7808C215.821 16.4295 215.67 17.0104 215.368 17.5234C215.081 18.0212 214.682 18.4211 214.169 18.7228C213.671 19.0094 213.098 19.1528 212.449 19.1528H199.685C199.036 19.1528 198.463 19.0094 197.965 18.7228C197.452 18.4211 197.052 18.0212 196.766 17.5234C196.464 17.0104 196.313 16.4295 196.313 15.7808V15.7355Z" fill="white"/>
<path d="M183.605 60.7355C183.605 60.0868 183.756 59.5135 184.058 59.0156C184.345 58.5026 184.744 58.1028 185.257 57.8162C185.755 57.5144 186.329 57.3636 186.977 57.3636H199.741C200.39 57.3636 200.963 57.5144 201.461 57.8162C201.974 58.1028 202.374 58.5026 202.66 59.0156C202.962 59.5135 203.113 60.0868 203.113 60.7355V60.7808C203.113 61.4295 202.962 62.0104 202.66 62.5234C202.374 63.0212 201.974 63.4211 201.461 63.7228C200.963 64.0094 200.39 64.1528 199.741 64.1528H186.977C186.329 64.1528 185.755 64.0094 185.257 63.7228C184.744 63.4211 184.345 63.0212 184.058 62.5234C183.756 62.0104 183.605 61.4295 183.605 60.7808V60.7355ZM196.313 60.7355C196.313 60.0868 196.464 59.5135 196.766 59.0156C197.052 58.5026 197.452 58.1028 197.965 57.8162C198.463 57.5144 199.036 57.3636 199.685 57.3636H212.449C213.098 57.3636 213.671 57.5144 214.169 57.8162C214.682 58.1028 215.081 58.5026 215.368 59.0156C215.67 59.5135 215.821 60.0868 215.821 60.7355V60.7808C215.821 61.4295 215.67 62.0104 215.368 62.5234C215.081 63.0212 214.682 63.4211 214.169 63.7228C213.671 64.0094 213.098 64.1528 212.449 64.1528H199.685C199.036 64.1528 198.463 64.0094 197.965 63.7228C197.452 63.4211 197.052 63.0212 196.766 62.5234C196.464 62.0104 196.313 61.4295 196.313 60.7808V60.7355Z" fill="white"/>
<path d="M189.605 104.736C189.605 104.087 189.756 103.513 190.058 103.016C190.345 102.503 190.744 102.103 191.257 101.816C191.755 101.514 192.329 101.364 192.977 101.364H205.741C206.39 101.364 206.963 101.514 207.461 101.816C207.974 102.103 208.374 102.503 208.66 103.016C208.962 103.513 209.113 104.087 209.113 104.736V104.781C209.113 105.43 208.962 106.01 208.66 106.523C208.374 107.021 207.974 107.421 207.461 107.723C206.963 108.009 206.39 108.153 205.741 108.153H192.977C192.329 108.153 191.755 108.009 191.257 107.723C190.744 107.421 190.345 107.021 190.058 106.523C189.756 106.01 189.605 105.43 189.605 104.781V104.736Z" fill="white"/>
<path d="M189.605 147.736C189.605 147.087 189.756 146.513 190.058 146.016C190.345 145.503 190.744 145.103 191.257 144.816C191.755 144.514 192.329 144.364 192.977 144.364H205.741C206.39 144.364 206.963 144.514 207.461 144.816C207.974 145.103 208.374 145.503 208.66 146.016C208.962 146.513 209.113 147.087 209.113 147.736V147.781C209.113 148.43 208.962 149.01 208.66 149.523C208.374 150.021 207.974 150.421 207.461 150.723C206.963 151.009 206.39 151.153 205.741 151.153H192.977C192.329 151.153 191.755 151.009 191.257 150.723C190.744 150.421 190.345 150.021 190.058 149.523C189.756 149.01 189.605 148.43 189.605 147.781V147.736Z" fill="white"/>
<path d="M189.605 190.736C189.605 190.087 189.756 189.513 190.058 189.016C190.345 188.503 190.744 188.103 191.257 187.816C191.755 187.514 192.329 187.364 192.977 187.364H205.741C206.39 187.364 206.963 187.514 207.461 187.816C207.974 188.103 208.374 188.503 208.66 189.016C208.962 189.513 209.113 190.087 209.113 190.736V190.781C209.113 191.43 208.962 192.01 208.66 192.523C208.374 193.021 207.974 193.421 207.461 193.723C206.963 194.009 206.39 194.153 205.741 194.153H192.977C192.329 194.153 191.755 194.009 191.257 193.723C190.744 193.421 190.345 193.021 190.058 192.523C189.756 192.01 189.605 191.43 189.605 190.781V190.736Z" fill="white"/>
<path d="M15.4375 55.3021L13.3 53.3823C10.6805 51.0186 8.51484 48.9796 6.80307 47.2652C5.0913 45.5509 3.73028 44.0155 2.72001 42.6591C1.70971 41.3027 1.00381 40.056 0.6023 38.9192C0.200767 37.7824 0 36.6198 0 35.4313C0 33.0296 0.804795 31.024 2.41439 29.4144C4.024 27.8048 6.02962 27 8.43125 27C9.78468 27 11.073 27.2903 12.2963 27.8708C13.5196 28.4514 14.5667 29.2826 15.4375 30.3646C16.3479 29.2826 17.4035 28.4514 18.6042 27.8708C19.8049 27.2903 21.0847 27 22.4438 27C24.8454 27 26.851 27.8048 28.4606 29.4144C30.0702 31.024 30.875 33.0296 30.875 35.4313C30.875 36.6198 30.6742 37.7824 30.2727 38.9192C29.8712 40.056 29.1653 41.3027 28.155 42.6591C27.1447 44.0155 25.7837 45.5509 24.0719 47.2652C22.3602 48.9796 20.1945 51.0186 17.575 53.3823L15.4375 55.3021Z" fill="#9D3A3A"/>
<path d="M411.013 46.387L410.983 46.5168L411.021 46.6443L413.096 53.5266L413.324 54.2822L413.91 53.7535C416.533 51.3864 418.706 49.3411 420.426 47.6185C422.148 45.8938 423.527 44.3398 424.556 42.9578C425.585 41.576 426.321 40.2847 426.744 39.0857C427.164 37.8962 427.375 36.6773 427.375 35.4313C427.375 32.9051 426.523 30.7698 424.814 29.0608L424.461 29.4144L424.814 29.0608C423.105 27.3519 420.97 26.5 418.444 26.5C417.011 26.5 415.656 26.8067 414.387 27.4207C413.288 27.952 412.307 28.6811 411.445 29.6032C411.437 29.5947 411.429 29.5863 411.422 29.5778L410.775 28.8237L410.755 28.9146C410.083 28.3092 409.335 27.8103 408.511 27.4191C407.22 26.8068 405.859 26.5 404.431 26.5C401.905 26.5 399.77 27.3519 398.061 29.0608L398.061 29.0608C396.352 30.7698 395.5 32.9051 395.5 35.4313C395.5 36.6773 395.711 37.8962 396.131 39.0857C396.554 40.2847 397.29 41.576 398.319 42.9578C399.348 44.3398 400.727 45.8938 402.449 47.6185C404.169 49.3411 406.342 51.3864 408.965 53.7535L410.061 54.7426L409.792 53.291L408.515 46.4172L411.225 38.1559L411.254 38.069L411.25 37.9778L411.005 32.4847L411.03 32.5537L412.979 37.9143L411.013 46.387Z" fill="#5546AE" stroke="white"/>
<path d="M411.013 90.387L410.983 90.5168L411.021 90.6443L413.096 97.5266L413.324 98.2822L413.91 97.7535C416.533 95.3864 418.706 93.3411 420.426 91.6185C422.148 89.8938 423.527 88.3398 424.556 86.9578C425.585 85.576 426.321 84.2847 426.744 83.0857C427.164 81.8962 427.375 80.6773 427.375 79.4313C427.375 76.9051 426.523 74.7698 424.814 73.0608L424.461 73.4144L424.814 73.0608C423.105 71.3519 420.97 70.5 418.444 70.5C417.011 70.5 415.656 70.8067 414.387 71.4207C413.288 71.952 412.307 72.6811 411.445 73.6032C411.437 73.5947 411.429 73.5863 411.422 73.5778L410.775 72.8237L410.755 72.9146C410.083 72.3092 409.335 71.8103 408.511 71.4191C407.22 70.8068 405.859 70.5 404.431 70.5C401.905 70.5 399.77 71.3519 398.061 73.0608L398.061 73.0608C396.352 74.7698 395.5 76.9051 395.5 79.4313C395.5 80.6773 395.711 81.8962 396.131 83.0857C396.554 84.2847 397.29 85.576 398.319 86.9578C399.348 88.3398 400.727 89.8938 402.449 91.6185C404.169 93.3411 406.342 95.3864 408.965 97.7535L410.061 98.7426L409.792 97.291L408.515 90.4172L411.225 82.1559L411.254 82.069L411.25 81.9778L411.005 76.4847L411.03 76.5537L412.979 81.9143L411.013 90.387Z" fill="#5546AE" stroke="white"/>
<path d="M411.013 133.387L410.983 133.517L411.021 133.644L413.096 140.527L413.324 141.282L413.91 140.754C416.533 138.386 418.706 136.341 420.426 134.619C422.148 132.894 423.527 131.34 424.556 129.958C425.585 128.576 426.321 127.285 426.744 126.086C427.164 124.896 427.375 123.677 427.375 122.431C427.375 119.905 426.523 117.77 424.814 116.061L424.461 116.414L424.814 116.061C423.105 114.352 420.97 113.5 418.444 113.5C417.011 113.5 415.656 113.807 414.387 114.421C413.288 114.952 412.307 115.681 411.445 116.603C411.437 116.595 411.429 116.586 411.422 116.578L410.775 115.824L410.755 115.915C410.083 115.309 409.335 114.81 408.511 114.419C407.22 113.807 405.859 113.5 404.431 113.5C401.905 113.5 399.77 114.352 398.061 116.061L398.061 116.061C396.352 117.77 395.5 119.905 395.5 122.431C395.5 123.677 395.711 124.896 396.131 126.086C396.554 127.285 397.29 128.576 398.319 129.958C399.348 131.34 400.727 132.894 402.449 134.619C404.169 136.341 406.342 138.386 408.965 140.754L410.061 141.743L409.792 140.291L408.515 133.417L411.225 125.156L411.254 125.069L411.25 124.978L411.005 119.485L411.03 119.554L412.979 124.914L411.013 133.387Z" fill="#5546AE" stroke="white"/>
<path d="M411.013 176.387L410.983 176.517L411.021 176.644L413.096 183.527L413.324 184.282L413.91 183.754C416.533 181.386 418.706 179.341 420.426 177.619C422.148 175.894 423.527 174.34 424.556 172.958C425.585 171.576 426.321 170.285 426.744 169.086C427.164 167.896 427.375 166.677 427.375 165.431C427.375 162.905 426.523 160.77 424.814 159.061L424.461 159.414L424.814 159.061C423.105 157.352 420.97 156.5 418.444 156.5C417.011 156.5 415.656 156.807 414.387 157.421C413.288 157.952 412.307 158.681 411.445 159.603C411.437 159.595 411.429 159.586 411.422 159.578L410.775 158.824L410.755 158.915C410.083 158.309 409.335 157.81 408.511 157.419C407.22 156.807 405.859 156.5 404.431 156.5C401.905 156.5 399.77 157.352 398.061 159.061L398.061 159.061C396.352 160.77 395.5 162.905 395.5 165.431C395.5 166.677 395.711 167.896 396.131 169.086C396.554 170.285 397.29 171.576 398.319 172.958C399.348 174.34 400.727 175.894 402.449 177.619C404.169 179.341 406.342 181.386 408.965 183.754L410.061 184.743L409.792 183.291L408.515 176.417L411.225 168.156L411.254 168.069L411.25 167.978L411.005 162.485L411.03 162.554L412.979 167.914L411.013 176.387Z" fill="#5546AE" stroke="white"/>
<path d="M411.013 219.387L410.983 219.517L411.021 219.644L413.096 226.527L413.324 227.282L413.91 226.754C416.533 224.386 418.706 222.341 420.426 220.619C422.148 218.894 423.527 217.34 424.556 215.958C425.585 214.576 426.321 213.285 426.744 212.086C427.164 210.896 427.375 209.677 427.375 208.431C427.375 205.905 426.523 203.77 424.814 202.061L424.461 202.414L424.814 202.061C423.105 200.352 420.97 199.5 418.444 199.5C417.011 199.5 415.656 199.807 414.387 200.421C413.288 200.952 412.307 201.681 411.445 202.603C411.437 202.595 411.429 202.586 411.422 202.578L410.775 201.824L410.755 201.915C410.083 201.309 409.335 200.81 408.511 200.419C407.22 199.807 405.859 199.5 404.431 199.5C401.905 199.5 399.77 200.352 398.061 202.061L398.061 202.061C396.352 203.77 395.5 205.905 395.5 208.431C395.5 209.677 395.711 210.896 396.131 212.086C396.554 213.285 397.29 214.576 398.319 215.958C399.348 217.34 400.727 218.894 402.449 220.619C404.169 222.341 406.342 224.386 408.965 226.754L410.061 227.743L409.792 226.291L408.515 219.417L411.225 211.156L411.254 211.069L411.25 210.978L411.005 205.485L411.03 205.554L412.979 210.914L411.013 219.387Z" fill="#5546AE" stroke="white"/>
<path d="M15.4375 98.3021L13.3 96.3823C10.6805 94.0186 8.51484 91.9796 6.80307 90.2652C5.0913 88.5509 3.73028 87.0155 2.72001 85.6591C1.70971 84.3027 1.00381 83.056 0.6023 81.9192C0.200767 80.7824 0 79.6198 0 78.4313C0 76.0296 0.804795 74.024 2.41439 72.4144C4.024 70.8048 6.02962 70 8.43125 70C9.78468 70 11.073 70.2903 12.2963 70.8708C13.5196 71.4514 14.5667 72.2826 15.4375 73.3646C16.3479 72.2826 17.4035 71.4514 18.6042 70.8708C19.8049 70.2903 21.0847 70 22.4438 70C24.8454 70 26.851 70.8048 28.4606 72.4144C30.0702 74.024 30.875 76.0296 30.875 78.4313C30.875 79.6198 30.6742 80.7824 30.2727 81.9192C29.8712 83.056 29.1653 84.3027 28.155 85.6591C27.1447 87.0155 25.7837 88.5509 24.0719 90.2652C22.3602 91.9796 20.1945 94.0186 17.575 96.3823L15.4375 98.3021Z" fill="#FF6E00"/>
<path d="M15.4375 141.302L13.3 139.382C10.6805 137.019 8.51484 134.98 6.80307 133.265C5.0913 131.551 3.73028 130.016 2.72001 128.659C1.70971 127.303 1.00381 126.056 0.6023 124.919C0.200767 123.782 0 122.62 0 121.431C0 119.03 0.804795 117.024 2.41439 115.414C4.024 113.805 6.02962 113 8.43125 113C9.78468 113 11.073 113.29 12.2963 113.871C13.5196 114.451 14.5667 115.283 15.4375 116.365C16.3479 115.283 17.4035 114.451 18.6042 113.871C19.8049 113.29 21.0847 113 22.4438 113C24.8454 113 26.851 113.805 28.4606 115.414C30.0702 117.024 30.875 119.03 30.875 121.431C30.875 122.62 30.6742 123.782 30.2727 124.919C29.8712 126.056 29.1653 127.303 28.155 128.659C27.1447 130.016 25.7837 131.551 24.0719 133.265C22.3602 134.98 20.1945 137.019 17.575 139.382L15.4375 141.302Z" fill="#9D3A3A"/>
<path d="M15.4375 184.302L13.3 182.382C10.6805 180.019 8.51484 177.98 6.80307 176.265C5.0913 174.551 3.73028 173.016 2.72001 171.659C1.70971 170.303 1.00381 169.056 0.6023 167.919C0.200767 166.782 0 165.62 0 164.431C0 162.03 0.804795 160.024 2.41439 158.414C4.024 156.805 6.02962 156 8.43125 156C9.78468 156 11.073 156.29 12.2963 156.871C13.5196 157.451 14.5667 158.283 15.4375 159.365C16.3479 158.283 17.4035 157.451 18.6042 156.871C19.8049 156.29 21.0847 156 22.4438 156C24.8454 156 26.851 156.805 28.4606 158.414C30.0702 160.024 30.875 162.03 30.875 164.431C30.875 165.62 30.6742 166.782 30.2727 167.919C29.8712 169.056 29.1653 170.303 28.155 171.659C27.1447 173.016 25.7837 174.551 24.0719 176.265C22.3602 177.98 20.1945 180.019 17.575 182.382L15.4375 184.302Z" fill="#9D3A3A"/>
<path d="M15.4375 227.302L13.3 225.382C10.6805 223.019 8.51484 220.98 6.80307 219.265C5.0913 217.551 3.73028 216.016 2.72001 214.659C1.70971 213.303 1.00381 212.056 0.6023 210.919C0.200767 209.782 0 208.62 0 207.431C0 205.03 0.804795 203.024 2.41439 201.414C4.024 199.805 6.02962 199 8.43125 199C9.78468 199 11.073 199.29 12.2963 199.871C13.5196 200.451 14.5667 201.283 15.4375 202.365C16.3479 201.283 17.4035 200.451 18.6042 199.871C19.8049 199.29 21.0847 199 22.4438 199C24.8454 199 26.851 199.805 28.4606 201.414C30.0702 203.024 30.875 205.03 30.875 207.431C30.875 208.62 30.6742 209.782 30.2727 210.919C29.8712 212.056 29.1653 213.303 28.155 214.659C27.1447 216.016 25.7837 217.551 24.0719 219.265C22.3602 220.98 20.1945 223.019 17.575 225.382L15.4375 227.302Z" fill="#FF6E00"/>
<rect width="430" height="89" transform="translate(0 140)" fill="url(#paint0_linear_681_202)"/>
<defs>
<linearGradient id="paint0_linear_681_202" x1="137.5" y1="70.5" x2="137.5" y2="-3.55618e-07" gradientUnits="userSpaceOnUse">
<stop stop-color="#5546AE"/>
<stop offset="1" stop-color="#5546AE" stop-opacity="0"/>
</linearGradient>
</defs>
</svg>
